<svg fill="currentColor" height="24" viewBox="0 0 24 24" width="24" xmlns="http://www.w3.org/2000/svg">
    <path
            clipRule="evenodd"
            d="M16 10H8C7.73478 10 7.48043 9.89464 7.29289 9.70711C7.10536 9.51957 7 9.26522 7 9C7 8.73478 7.10536 8.48043 7.29289 8.29289C7.48043 8.10536 7.73478 8 8 8H16C16.2652 8 16.5196 8.10536 16.7071 8.29289C16.8946 8.48043 17 8.73478 17 9C17 9.26522 16.8946 9.51957 16.7071 9.70711C16.5196 9.89464 16.2652 10 16 10ZM14 14H8C7.73478 14 7.48043 13.8946 7.29289 13.7071C7.10536 13.5196 7 13.2652 7 13C7 12.7348 7.10536 12.4804 7.29289 12.2929C7.48043 12.1054 7.73478 12 8 12H14C14.2652 12 14.5196 12.1054 14.7071 12.2929C14.8946 12.4804 15 12.7348 15 13C15 13.2652 14.8946 13.5196 14.7071 13.7071C14.5196 13.8946 14.2652 14 14 14ZM12 2C4.636 2 2 3.636 2 11C2 16.356 3.406 18.675 7 19.545V22.36C7 22.642 7.307 22.815 7.548 22.671L12 20C19.364 20 22 18.363 22 11C22 3.636 19.364 2 12 2Z"
            fill="currentColor"
            fillRule="evenodd"
    />
</svg>